# xmcd CD database file
#
# Track frame offsets:
#	150
#	8540
#	18376
#	31102
#	39611
#	49875
#	61441
#	77510
#	91901
#	104051
#	116857
#
# Disc length: 1717 seconds
#
# Revision: 0
# Processed by: cddbd v1.5.1PL0 Copyright (c) Steve Scherf et al.
# Submitted via: CDex 1.51
#
DISCID=8406b30b
DTITLE=Piano Red - Previoulsy Unissued Recordings
DYEAR=1999
DGENRE=Blues
TTITLE0=Let's Fall In Love
TTITLE1=Choo Cha
TTITLE2=Dr Feelgood
TTITLE3=The Right String But The Wrong Yo-Yo
TTITLE4=Shake, Rattle And Roll
TTITLE5=Corrina, Corrina
TTITLE6=Whiskey Man a.k.a. Ten-Cent Shot
TTITLE7=Push That Thing
TTITLE8=You Ain't Got A Chance
TTITLE9=Let's Get It On
TTITLE10=Please Don't Talk About Me When I'm Gone
EXTD=YEAR: 1999
EXTT0=
EXTT1=
EXTT2=
EXTT3=
EXTT4=
EXTT5=
EXTT6=
EXTT7=
EXTT8=
EXTT9=
EXTT10=
PLAYORDER=
